<?xml version="1.0" encoding="UTF-8" standalone="no"?>
<svg
   viewBox="0 0 512 512"
   version="1.1"
   id="svg2"
   sodipodi:docname="icon.svg"
   inkscape:version="1.4 (86a8ad7, 2024-10-11)"
   xmlns:inkscape="http://www.inkscape.org/namespaces/inkscape"
   xmlns:sodipodi="http://sodipodi.sourceforge.net/DTD/sodipodi-0.dtd"
   xmlns="http://www.w3.org/2000/svg"
   xmlns:svg="http://www.w3.org/2000/svg">
  <sodipodi:namedview
     id="namedview2"
     pagecolor="#ffffff"
     bordercolor="#000000"
     borderopacity="0.25"
     inkscape:showpageshadow="2"
     inkscape:pageopacity="0.0"
     inkscape:pagecheckerboard="0"
     inkscape:deskcolor="#d1d1d1"
     inkscape:zoom="1.2402344"
     inkscape:cx="256"
     inkscape:cy="256"
     inkscape:window-width="1600"
     inkscape:window-height="837"
     inkscape:window-x="-8"
     inkscape:window-y="-8"
     inkscape:window-maximized="1"
     inkscape:current-layer="svg2" />
  <defs
     id="defs2">
    <rect
       x="111.26929"
       y="52.409449"
       width="144.32756"
       height="252.37165"
       id="rect3" />
    <linearGradient
       id="grad1"
       x1="0%"
       y1="0%"
       x2="100%"
       y2="100%">
      <stop
         offset="0%"
         style="stop-color:#F5DC00;stop-opacity:1"
         id="stop1" />
      <stop
         offset="100%"
         style="stop-color:#FFD700;stop-opacity:1"
         id="stop2" />
    </linearGradient>
  </defs>
  <rect
     width="512"
     height="512"
     rx="100"
     fill="url(#grad1)"
     id="rect2" />
  <g
     transform="matrix(0.96355455,0,0,0.96355455,9.3300352,9.3300352)"
     id="g2">
    <path
       fill="#1f2937"
       d="m 128,32 h 256 c 35.3,0 64,28.7 64,64 v 320 c 0,35.3 -28.7,64 -64,64 H 128 C 92.7,480 64,451.3 64,416 V 96 C 64,60.7 92.7,32 128,32 Z m 256,400 c 8.8,0 16,-7.2 16,-16 V 96 c 0,-8.8 -7.2,-16 -16,-16 H 128 c -8.8,0 -16,7.2 -16,16 v 320 c 0,8.8 7.2,16 16,16 z"
       id="path2"
       sodipodi:nodetypes="ssssssssssssssssss" />
  </g>
  <text
     xml:space="preserve"
     id="text3"
     style="font-weight:bold;font-size:42.6667px;font-family:sans-serif;-inkscape-font-specification:'sans-serif Bold';text-align:start;writing-mode:lr-tb;direction:ltr;white-space:pre;shape-inside:url(#rect3);fill:#1f2937;fill-opacity:1"
     transform="matrix(5.9791642,0,0,5.9791642,-520.59853,-197.37521)"><tspan
       x="111.26953"
       y="91.336279"
       id="tspan1">D</tspan></text>
</svg>
